<svg width="24" height="24" viewBox="0 0 24 24" fill="none" xmlns="http://www.w3.org/2000/svg">
<path d="M21.2752 1.90537C18.1114 4.64362 15.4346 7.25024 12.984 10.6511C11.9032 12.1511 10.7014 13.9166 9.91573 15.5835C9.46723 16.4674 8.65873 17.8485 8.3831 19.1764C6.8756 17.7739 5.25635 16.182 3.5996 14.9351C2.41873 14.0467 -0.982523 15.858 0.401977 16.8997C2.88335 18.7661 4.94698 21.0907 7.36048 23.0404C8.36998 23.8549 10.6072 22.086 11.133 21.3439C12.8587 18.8989 13.0946 15.9101 14.3524 13.2431C16.2727 9.16424 19.6785 5.81362 23.0411 2.90399C25.269 0.826116 22.968 0.442866 21.2786 1.90537" fill="#37B34A"/>
</svg>
